<?xml version="1.0" encoding="utf-8"?>
<!-- Generator: Adobe Illustrator 20.0.0, SVG Export Plug-In . SVG Version: 6.00 Build 0)  -->
<svg version="1.1" id="Ebene_1" xmlns="http://www.w3.org/2000/svg" xmlns:xlink="http://www.w3.org/1999/xlink" x="0px" y="0px"
	 viewBox="0 0 649.5 94.9" style="enable-background:new 0 0 649.5 94.9;" xml:space="preserve">
<style type="text/css">
	.st0{fill:#000;}
	.st1{fill:#95C11F;}
	.st2{fill:#EF7D00;}
	.st3{fill:#006C9B;}
	.st4{opacity:0.3;fill:#FFFFFF;enable-background:new    ;}
</style>
<g>
	<path class="st0" d="M275,51.2l-8.5-34h-0.1l-8.3,34H247l-13.2-50h11l7.9,34h0.1l8.7-34h10.3l8.5,34.4h0.1l8.2-34.4h10.8l-13.4,50
		H275z"/>
	<path class="st0" d="M345.3,1.2v9.2h-26.4v10.7h24.2v8.5h-24.2v12.2h26.9V51h-37.9V1L345.3,1.2L345.3,1.2z"/>
	<path class="st0" d="M367.8,1.2v50h-11v-50C356.8,1.2,367.8,1.2,367.8,1.2z"/>
	<path class="st0" d="M389.3,38.9c0.6,1.2,1.4,2.1,2.4,2.8s2.2,1.3,3.5,1.6s2.8,0.5,4.2,0.5c1,0,2-0.1,3.1-0.2
		c1.1-0.2,2.2-0.5,3.1-0.9c1-0.5,1.8-1.1,2.5-1.9c0.7-0.8,1-1.9,1-3.1c0-1.4-0.4-2.4-1.3-3.3c-0.9-0.8-2-1.5-3.4-2.1
		c-1.4-0.6-3-1.1-4.8-1.5s-3.6-0.9-5.4-1.4c-1.9-0.5-3.7-1-5.5-1.7s-3.4-1.6-4.8-2.6c-1.4-1.1-2.5-2.4-3.4-4s-1.3-3.6-1.3-5.8
		c0-2.6,0.5-4.8,1.6-6.7s2.5-3.5,4.3-4.7c1.8-1.3,3.8-2.2,6-2.8s4.5-0.9,6.7-0.9c2.6,0,5.1,0.3,7.5,0.9s4.5,1.5,6.4,2.8s3.3,3,4.4,5
		s1.6,4.5,1.6,7.4h-10.6c-0.1-1.5-0.4-2.7-0.9-3.7s-1.2-1.8-2.1-2.3s-1.9-1-3-1.2s-2.4-0.4-3.7-0.4c-0.9,0-1.8,0.1-2.7,0.3
		c-0.9,0.2-1.7,0.5-2.4,1c-0.7,0.5-1.3,1.1-1.8,1.8s-0.7,1.6-0.7,2.7c0,1,0.2,1.8,0.6,2.4s1.1,1.2,2.2,1.7s2.6,1,4.6,1.5
		c1.9,0.5,4.5,1.2,7.6,2c0.9,0.2,2.2,0.5,3.9,1c1.7,0.5,3.3,1.3,4.9,2.3c1.6,1.1,3,2.5,4.2,4.3c1.2,1.8,1.8,4.1,1.8,6.9
		c0,2.3-0.4,4.4-1.3,6.4s-2.2,3.7-4,5.1s-3.9,2.5-6.5,3.3s-5.6,1.2-9,1.2c-2.8,0-5.4-0.3-8-1s-4.9-1.7-6.9-3.2
		c-2-1.4-3.6-3.3-4.7-5.5c-1.2-2.2-1.7-4.9-1.7-8h10.6C388.4,36.3,388.7,37.7,389.3,38.9z"/>
	<path class="st0" d="M438.2,38.9c0.6,1.2,1.4,2.1,2.4,2.8s2.2,1.3,3.5,1.6s2.8,0.5,4.2,0.5c1,0,2-0.1,3.2-0.2
		c1.1-0.2,2.2-0.5,3.1-0.9c1-0.5,1.8-1.1,2.5-1.9c0.7-0.8,1-1.9,1-3.1c0-1.4-0.4-2.4-1.3-3.3c-0.9-0.8-2-1.5-3.4-2.1
		c-1.4-0.6-3-1.1-4.8-1.5s-3.6-0.9-5.4-1.4c-1.9-0.5-3.7-1-5.5-1.7s-3.4-1.6-4.8-2.6c-1.4-1.1-2.5-2.4-3.4-4s-1.3-3.6-1.3-5.8
		c0-2.6,0.5-4.8,1.6-6.7s2.5-3.5,4.3-4.7c1.8-1.3,3.8-2.2,6-2.8s4.5-0.9,6.7-0.9c2.6,0,5.1,0.3,7.5,0.9s4.5,1.5,6.4,2.8s3.3,3,4.4,5
		s1.6,4.5,1.6,7.4h-10.6c-0.1-1.5-0.4-2.7-0.9-3.7s-1.2-1.8-2.1-2.3s-1.9-1-3-1.2s-2.4-0.4-3.7-0.4c-0.9,0-1.8,0.1-2.7,0.3
		c-0.9,0.2-1.7,0.5-2.4,1c-0.7,0.5-1.3,1.1-1.8,1.8s-0.7,1.6-0.7,2.7c0,1,0.2,1.8,0.6,2.4s1.1,1.2,2.2,1.7s2.6,1,4.6,1.5
		c1.9,0.5,4.5,1.2,7.6,2c0.9,0.2,2.2,0.5,3.9,1c1.7,0.5,3.3,1.3,4.9,2.3c1.6,1.1,3,2.5,4.2,4.3c1.2,1.8,1.8,4.1,1.8,6.9
		c0,2.3-0.4,4.4-1.3,6.4s-2.2,3.7-4,5.1s-3.9,2.5-6.5,3.3s-5.6,1.2-9,1.2c-2.8,0-5.4-0.3-8-1s-4.9-1.7-6.9-3.2
		c-2-1.4-3.6-3.3-4.7-5.5c-1.2-2.2-1.7-4.9-1.7-8h10.6C437.3,36.3,437.6,37.7,438.2,38.9z"/>
	<path class="st0" d="M248.4,72.2c-1.1-0.8-2.6-1.2-4.4-1.2c-0.7,0-1.4,0.1-2.1,0.2c-0.7,0.1-1.3,0.4-1.9,0.7s-1,0.8-1.3,1.4
		s-0.5,1.3-0.5,2.1c0,0.8,0.2,1.4,0.7,1.9s1.1,0.9,1.9,1.2c0.8,0.3,1.7,0.6,2.6,0.8s2,0.4,3,0.7c1,0.2,2,0.5,3,0.8s1.9,0.8,2.6,1.3
		s1.4,1.2,1.9,2.1c0.5,0.8,0.7,1.9,0.7,3.2c0,1.4-0.3,2.5-0.9,3.5s-1.4,1.8-2.4,2.4s-2,1.1-3.2,1.3s-2.4,0.4-3.5,0.4
		c-1.4,0-2.8-0.2-4.1-0.5c-1.3-0.4-2.4-0.9-3.4-1.6s-1.7-1.7-2.3-2.8c-0.6-1.1-0.8-2.5-0.8-4.1h3.2c0,1.1,0.2,2,0.6,2.8
		c0.4,0.8,1,1.4,1.7,1.9s1.5,0.9,2.4,1.1s1.8,0.4,2.8,0.4c0.8,0,1.5-0.1,2.3-0.2s1.5-0.4,2.1-0.7s1.1-0.8,1.5-1.4s0.6-1.4,0.6-2.3
		s-0.2-1.6-0.7-2.2s-1.1-1-1.9-1.4c-0.8-0.3-1.7-0.6-2.6-0.8c-1-0.2-2-0.4-3-0.7c-1-0.2-2-0.5-3-0.8s-1.9-0.7-2.6-1.2
		c-0.8-0.5-1.4-1.1-1.9-1.9s-0.7-1.8-0.7-2.9c0-1.3,0.3-2.4,0.8-3.4c0.5-0.9,1.2-1.7,2.1-2.3c0.9-0.6,1.9-1.1,3-1.4s2.3-0.4,3.4-0.4
		c1.3,0,2.5,0.2,3.7,0.5c1.1,0.3,2.1,0.8,3,1.5s1.5,1.5,2,2.5s0.8,2.2,0.8,3.7h-3.2C250.2,74.3,249.6,73,248.4,72.2z"/>
	<path class="st0" d="M260,76.5c0.5-1.6,1.3-3.1,2.3-4.3c1-1.2,2.3-2.2,3.9-3c1.5-0.7,3.3-1.1,5.4-1.1s3.8,0.4,5.4,1.1
		c1.5,0.7,2.8,1.7,3.9,3c1,1.2,1.8,2.7,2.3,4.3s0.8,3.3,0.8,5.1s-0.3,3.4-0.8,5.1s-1.3,3.1-2.3,4.3c-1,1.2-2.3,2.2-3.9,3
		c-1.5,0.7-3.3,1.1-5.4,1.1c-2,0-3.8-0.4-5.4-1.1c-1.5-0.7-2.8-1.7-3.9-3c-1-1.2-1.8-2.7-2.3-4.3c-0.5-1.6-0.8-3.3-0.8-5.1
		S259.5,78.1,260,76.5z M263.2,85.4c0.3,1.3,0.9,2.4,1.6,3.4s1.6,1.8,2.8,2.4c1.1,0.6,2.5,0.9,4,0.9c1.6,0,2.9-0.3,4-0.9
		s2.1-1.4,2.8-2.4s1.2-2.1,1.6-3.4c0.3-1.3,0.5-2.5,0.5-3.8s-0.2-2.6-0.5-3.8c-0.3-1.3-0.9-2.4-1.6-3.4s-1.6-1.8-2.8-2.4
		s-2.5-0.9-4-0.9c-1.6,0-2.9,0.3-4,0.9s-2.1,1.4-2.8,2.4s-1.2,2.1-1.6,3.4c-0.3,1.3-0.5,2.5-0.5,3.8
		C262.7,82.8,262.8,84.1,263.2,85.4z"/>
	<path class="st0" d="M306.7,68.7v2.9h-13.5v8.2H305v2.9h-11.8v11.8h-3.4V68.7H306.7L306.7,68.7z"/>
	<path class="st0" d="M309.6,71.5v-2.9h20.6v2.9h-8.6v22.8h-3.4V71.5H309.6z"/>
	<path class="st0" d="M354.4,94.4l-5.9-21.6h-0.1l-5.9,21.6H339l-6.6-25.7h3.5l5,21.4h0.1l5.8-21.4h3.7l5.7,21.4h0.1l5.2-21.4h3.4
		L358,94.4H354.4z"/>
	<path class="st0" d="M379.8,68.7l10,25.7H386l-2.8-7.7h-10.9l-2.9,7.7H366l10-25.7H379.8z M382.2,83.8l-4.3-12h-0.1l-4.4,12H382.2z
		"/>
	<path class="st0" d="M406.3,68.7c2.4,0,4.4,0.6,5.7,1.8c1.4,1.2,2.1,2.8,2.1,4.9c0,1.6-0.4,2.9-1.1,4.1s-1.8,2-3.4,2.4V82
		c0.7,0.1,1.4,0.4,1.8,0.7c0.5,0.3,0.8,0.7,1.1,1.2c0.3,0.5,0.5,1,0.6,1.6s0.2,1.2,0.3,1.8c0,0.6,0.1,1.3,0.1,1.9s0.1,1.3,0.2,1.9
		s0.2,1.2,0.4,1.8c0.2,0.6,0.5,1.1,0.8,1.5h-3.8c-0.2-0.3-0.4-0.6-0.5-1.1s-0.1-1-0.2-1.5c0-0.6,0-1.2-0.1-1.8
		c0-0.6-0.1-1.3-0.2-1.9s-0.2-1.2-0.4-1.8c-0.1-0.6-0.4-1.1-0.7-1.5c-0.3-0.4-0.7-0.8-1.2-1s-1.2-0.4-2-0.4h-8.4v11H394V68.7H406.3
		L406.3,68.7z M407,80.3c0.7-0.1,1.4-0.4,1.9-0.7c0.5-0.3,1-0.8,1.3-1.4s0.5-1.4,0.5-2.3c0-1.3-0.4-2.4-1.1-3.2
		c-0.7-0.8-1.9-1.2-3.5-1.2h-8.5v9h7.1C405.5,80.5,406.3,80.5,407,80.3z"/>
	<path class="st0" d="M438.4,68.7v2.9H424v8.2h13.4v2.9H424v8.9h14.4v2.9h-17.9V68.7H438.4L438.4,68.7z"/>
	<path class="st0" d="M447.8,68.7v22.8h13.6v2.9h-17V68.7H447.8L447.8,68.7z"/>
	<path class="st0" d="M465.6,76.5c0.5-1.6,1.3-3.1,2.3-4.3s2.3-2.2,3.9-3c1.5-0.7,3.3-1.1,5.4-1.1s3.8,0.4,5.4,1.1
		c1.5,0.7,2.8,1.7,3.9,3c1,1.2,1.8,2.7,2.3,4.3s0.8,3.3,0.8,5.1s-0.3,3.4-0.8,5.1c-0.5,1.6-1.3,3.1-2.3,4.3c-1,1.2-2.3,2.2-3.9,3
		c-1.5,0.7-3.3,1.1-5.4,1.1s-3.8-0.4-5.4-1.1c-1.5-0.7-2.8-1.7-3.9-3c-1-1.2-1.8-2.7-2.3-4.3s-0.8-3.3-0.8-5.1
		S465.1,78.1,465.6,76.5z M468.7,85.4c0.3,1.3,0.9,2.4,1.6,3.4s1.6,1.8,2.8,2.4c1.1,0.6,2.5,0.9,4,0.9s2.9-0.3,4-0.9
		s2.1-1.4,2.8-2.4s1.2-2.1,1.6-3.4c0.3-1.3,0.5-2.5,0.5-3.8s-0.2-2.6-0.5-3.8c-0.3-1.3-0.9-2.4-1.6-3.4s-1.6-1.8-2.8-2.4
		c-1.1-0.6-2.5-0.9-4-0.9s-2.9,0.3-4,0.9s-2.1,1.4-2.8,2.4s-1.2,2.1-1.6,3.4s-0.5,2.5-0.5,3.8C468.2,82.8,468.4,84.1,468.7,85.4z
		 M475.3,62.9v3.7h-3.2v-3.7C472.1,62.9,475.3,62.9,475.3,62.9z M482.1,62.9v3.7h-3.2v-3.7C478.9,62.9,482.1,62.9,482.1,62.9z"/>
	<path class="st0" d="M508.3,72.2c-1.1-0.8-2.6-1.2-4.4-1.2c-0.7,0-1.4,0.1-2.1,0.2s-1.3,0.4-1.9,0.7s-1,0.8-1.3,1.4
		s-0.5,1.3-0.5,2.1c0,0.8,0.2,1.4,0.7,1.9s1.1,0.9,1.9,1.2c0.8,0.3,1.7,0.6,2.6,0.8s2,0.4,3,0.7c1,0.2,2,0.5,3,0.8s1.9,0.8,2.6,1.3
		c0.8,0.6,1.4,1.2,1.9,2.1s0.7,1.9,0.7,3.2c0,1.4-0.3,2.5-0.9,3.5s-1.4,1.8-2.4,2.4s-2,1.1-3.2,1.3s-2.4,0.4-3.5,0.4
		c-1.4,0-2.8-0.2-4.1-0.5c-1.3-0.4-2.4-0.9-3.4-1.6s-1.7-1.7-2.3-2.8c-0.6-1.1-0.8-2.5-0.8-4.1h3.2c0,1.1,0.2,2,0.6,2.8
		s1,1.4,1.7,1.9s1.5,0.9,2.4,1.1s1.8,0.4,2.8,0.4c0.8,0,1.5-0.1,2.3-0.2s1.5-0.4,2.1-0.7c0.6-0.3,1.1-0.8,1.5-1.4s0.6-1.4,0.6-2.3
		s-0.2-1.6-0.7-2.2s-1.1-1-1.9-1.4c-0.8-0.3-1.7-0.6-2.6-0.8c-1-0.2-2-0.4-3-0.7c-1-0.2-2-0.5-3-0.8s-1.9-0.7-2.6-1.2
		c-0.8-0.5-1.4-1.1-1.9-1.9s-0.7-1.8-0.7-2.9c0-1.3,0.3-2.4,0.8-3.4c0.5-0.9,1.2-1.7,2.1-2.3c0.9-0.6,1.9-1.1,3-1.4s2.3-0.4,3.4-0.4
		c1.3,0,2.5,0.2,3.7,0.5c1.1,0.3,2.1,0.8,3,1.5s1.5,1.5,2,2.5s0.8,2.2,0.8,3.7h-3.2C510.1,74.3,509.4,73,508.3,72.2z"/>
	<path class="st0" d="M538.4,92.5c-1.8,1.6-4.2,2.5-7.5,2.5s-5.9-0.8-7.8-2.4c-1.9-1.6-2.8-4.1-2.8-7.5V68.7h3.4v16.4
		c0,2.3,0.6,4.1,1.8,5.2s3,1.8,5.3,1.8c2.2,0,3.8-0.6,5-1.8c1.1-1.2,1.7-2.9,1.7-5.2V68.7h3.4v16.4C541,88.4,540.2,90.8,538.4,92.5z
		"/>
	<path class="st0" d="M551.9,68.7l13.5,20.8h0.1V68.7h3.2v25.7H565l-13.4-20.6h-0.1v20.6h-3.2V68.7H551.9z"/>
	<path class="st0" d="M591.6,94.1c-1.5,0.6-3,0.9-4.5,0.9c-1.9,0-3.6-0.4-5.1-1.1s-2.8-1.7-3.9-2.9c-1.1-1.2-1.9-2.6-2.4-4.1
		c-0.6-1.6-0.8-3.2-0.8-4.9c0-1.9,0.3-3.7,0.8-5.3c0.5-1.7,1.3-3.2,2.3-4.4c1-1.3,2.3-2.3,3.8-3c1.5-0.8,3.3-1.1,5.3-1.1
		c1.4,0,2.7,0.2,3.9,0.5s2.3,0.8,3.3,1.5s1.8,1.6,2.4,2.6c0.7,1.1,1.1,2.4,1.3,3.9h-3.4c-0.2-1-0.5-1.8-0.9-2.5
		c-0.5-0.7-1-1.3-1.7-1.7c-0.7-0.5-1.4-0.8-2.3-1s-1.8-0.3-2.7-0.3c-1.6,0-2.9,0.3-4,0.9s-2,1.4-2.7,2.5c-0.7,1-1.2,2.2-1.6,3.5
		c-0.3,1.3-0.5,2.6-0.5,4c0,1.3,0.2,2.6,0.6,3.9c0.4,1.2,0.9,2.3,1.7,3.3c0.7,0.9,1.7,1.7,2.8,2.3c1.1,0.6,2.4,0.8,3.8,0.8
		c1.3,0,2.5-0.2,3.6-0.6s1.9-1,2.6-1.8s1.2-1.6,1.6-2.7c0.4-1,0.5-2.1,0.5-3.3h-8.2v-2.9h11.3v13.5h-2.2l-0.9-3.2
		C594.3,92.5,593.1,93.5,591.6,94.1z"/>
	<path class="st0" d="M623,68.7v2.9h-14.3v8.2H622v2.9h-13.4v8.9H623v2.9h-17.9V68.7H623L623,68.7z"/>
	<path class="st0" d="M632.6,68.7l13.5,20.8h0.1V68.7h3.2v25.7h-3.7l-13.4-20.6h-0.1v20.6H629V68.7H632.6z"/>
</g>
<g>
	<path class="st1" d="M23.8,82.4c4.6,13,14.7,12.5,14.7,12.5s18,0,21.9,0s2.4-3.3,2.4-3.3L55,65.9c-14.7-2.2-28.4-7-40.2-13.7
		L23.8,82.4z"/>
	<path class="st2" d="M113.5,82.4c4.6,13,14.7,12.5,14.7,12.5s18,0,21.9,0s2.4-3.3,2.4-3.3l-12.8-42.1c-9.5,5.9-20.3,10.5-32,13.6
		L113.5,82.4z"/>
	<path class="st3" d="M61.3,66.7l8.6,28.1c0,0,9.6,0.6,14.2-12.5l4.7-15.8c-2.3,0.3-4.6,0.4-6.9,0.6C74.8,67.6,68,67.4,61.3,66.7z"
		/>
	<path class="st3" d="M195.2,1.2h-15.5c-5.2,15.8-15.8,30.1-30,41.2l-3.1,10.3l12.9,42.2c0,0,9.6,0.6,14.2-12.5l23.7-78.6
		C197.4,3.8,198.4,1.2,195.2,1.2z"/>
	<path class="st1" d="M24.7,1.2H2.3c-3.2,0-2.2,2.6-2.2,2.6l14.6,48.5C26.6,59,40.3,63.7,55,65.9L38,10C35,1.2,24.7,1.2,24.7,1.2z"
		/>
	<path class="st4" d="M24.7,1.2H2.3c-3.2,0-2.2,2.6-2.2,2.6l14.6,48.5C26.6,59,40.3,63.7,55,65.9L38,10C35,1.2,24.7,1.2,24.7,1.2z"
		/>
	<path class="st2" d="M114.4,1.2H92c-3.2,0-2.2,2.6-2.2,2.6l17.9,59.3c11.6-3.1,22.4-7.7,32-13.6l-12-39.5
		C124.7,1.2,114.4,1.2,114.4,1.2z"/>
	<path class="st4" d="M114.4,1.2H92c-3.2,0-2.2,2.6-2.2,2.6l17.9,59.3c11.6-3.1,22.4-7.7,32-13.6l-12-39.5
		C124.7,1.2,114.4,1.2,114.4,1.2z"/>
	<path class="st3" d="M83.1,1.2c0,0-10.3,0-13.2,8.8L57,52.7l4.3,14.1c6.7,0.7,13.6,0.8,20.6,0.4c2.3-0.1,4.6-0.3,6.9-0.6l7-23.4
		L83.1,1.2z"/>
	<path class="st4" d="M83.1,1.2c0,0-10.3,0-13.2,8.8L57,52.7l4.3,14.1c6.7,0.7,13.6,0.8,20.6,0.4c2.3-0.1,4.6-0.3,6.9-0.6l7-23.4
		L83.1,1.2z"/>
	<path class="st3" d="M179.8,1.2h-6.9c0,0-10.3,0-13.2,8.8l-9.8,32.4C164,31.3,174.5,17,179.8,1.2z"/>
	<path class="st4" d="M179.8,1.2h-6.9c0,0-10.3,0-13.2,8.8l-9.8,32.4C164,31.3,174.5,17,179.8,1.2z"/>
</g>
</svg>
